<?xml version="1.0" encoding="UTF-8"?>
<svg version="1.1" xmlns="http://www.w3.org/2000/svg" width="512" height="512">
<path d="M0 0 C2.45134129 0.00545589 4.90267287 0.00781239 7.35401917 0.00987244 C33.18941623 0.04365508 58.87683833 0.65018233 84.59388733 3.31785583 C85.33030457 3.39282288 86.0667218 3.46778992 86.82545471 3.54502869 C141.06760503 9.11270344 141.06760503 9.11270344 156.59388733 21.31785583 C157.98273879 24.09555876 157.65064455 26.27831531 157.57704163 29.38475037 C157.55179916 30.66012665 157.5265567 31.93550293 157.50054932 33.24952698 C157.48614492 33.93361759 157.47174053 34.61770821 157.45689964 35.32252884 C157.37688389 39.71203731 157.36458316 44.10235127 157.34179974 48.49246407 C157.3179622 52.34763277 157.26914064 56.19929973 157.16542053 60.0532074 C157.0663269 63.78502478 157.03643338 67.51185197 157.05236244 71.24488449 C157.046242 72.6620549 157.01553066 74.0793538 156.95903587 75.49541092 C156.78432932 80.09613765 156.8955588 84.01380121 158.59388733 88.31785583 C162.50024066 92.18009032 167.63986628 94.14569389 172.59388733 96.31785583 C174.99854534 97.8352001 177.10654657 99.48664727 179.34388733 101.25535583 C180.13726501 101.88184021 180.13726501 101.88184021 180.94667053 102.52098083 C186.02686641 106.57594954 190.86959333 110.85645218 195.59388733 115.31785583 C196.39181702 116.0513324 197.1897467 116.78480896 198.01185608 117.54051208 C226.96570386 145.11341323 242.35775768 185.47009589 243.71888733 224.94285583 C244.39163287 267.32582493 229.64642967 308.24889057 200.0059967 338.8500824 C198.59296856 340.31881082 197.21022181 341.81210841 195.82826233 343.31004333 C175.73906572 364.68647517 147.10831495 379.2202458 118.59388733 385.31785583 C117.93259827 385.46593689 117.2713092 385.61401794 116.58998108 385.7665863 C97.73217787 389.85978705 77.07563975 390.03934379 58.07849121 386.79167175 C46.98613316 385.28339822 35.51379244 386.50258727 24.40248108 387.30223083 C7.99949805 388.40370283 -8.35421733 388.62846563 -24.78965759 388.57859802 C-28.58134431 388.56721493 -32.37274965 388.57399939 -36.1644268 388.58547497 C-63.46840401 388.65542907 -90.76815149 387.68854751 -117.90611267 384.50535583 C-118.63663849 384.4220401 -119.36716431 384.33872437 -120.11982727 384.25288391 C-173.43929663 378.12619032 -173.43929663 378.12619032 -184.40611267 366.31785583 C-185.54489948 363.11649688 -185.49308024 360.10891296 -185.42539978 356.73582458 C-185.44401817 355.31519211 -185.44401817 355.31519211 -185.4630127 353.86585999 C-185.49305391 350.74444802 -185.46499101 347.62670783 -185.43345642 344.50535583 C-185.43630697 342.33111613 -185.44167936 340.1568784 -185.44946289 337.98265076 C-185.456739 333.42951458 -185.43564135 328.87763765 -185.39414978 324.32469177 C-185.34297113 318.49317493 -185.35883491 312.66415996 -185.39552975 306.83261108 C-185.41695656 302.34397861 -185.40454238 297.85593157 -185.38176155 293.36732483 C-185.3745856 291.21757479 -185.37750227 289.06776627 -185.39074516 286.91804504 C-185.403843 283.91062134 -185.37178958 280.90694551 -185.32774353 277.89988708 C-185.3403421 277.01451263 -185.35294067 276.12913818 -185.36592102 275.2169342 C-185.27408665 271.64410359 -185.17912886 269.26606088 -182.87251377 266.43669701 C-179.78051572 263.7253469 -176.7505305 261.63512261 -172.78501892 260.41941833 C-171.99546814 260.16805115 -171.20591736 259.91668396 -170.3924408 259.65769958 C-169.19264587 259.30385193 -169.19264587 259.30385193 -167.96861267 258.94285583 C-167.14167908 258.68375427 -166.31474548 258.42465271 -165.4627533 258.15769958 C-163.4486181 257.52900999 -161.42798259 256.92120749 -159.40611267 256.31785583 C-160.60602844 256.16751892 -160.60602844 256.16751892 -161.83018494 256.0141449 C-201.29231353 251.00434318 -201.29231353 251.00434318 -211.40611267 243.31785583 C-213.13176422 239.86655274 -212.58120805 235.88229109 -212.59898376 232.08226013 C-212.60716125 231.12439606 -212.61533875 230.16653198 -212.62376404 229.17964172 C-212.64863677 226.00045909 -212.66513824 222.82132115 -212.67955017 219.64207458 C-212.68487385 218.55792582 -212.69019753 217.47377705 -212.69568253 216.35677528 C-212.72242134 210.61928132 -212.74179456 204.88180919 -212.75621033 199.14427185 C-212.77286655 193.21221966 -212.81765085 187.28072212 -212.86858177 181.34887981 C-212.90220402 176.79270779 -212.91378225 172.23666827 -212.91943741 167.68038368 C-212.92616297 165.49346995 -212.94141869 163.30656533 -212.96532822 161.11977196 C-212.99687627 158.05993032 -212.99703189 155.00159607 -212.98960876 151.94163513 C-213.0060141 151.03703049 -213.02241943 150.13242584 -213.0393219 149.20040894 C-212.99471348 144.71202402 -212.88203215 142.91352596 -209.99182129 139.29608154 C-204.34225928 134.97382004 -198.16646278 132.65634369 -191.34361267 130.81785583 C-190.58773865 130.61136414 -189.83186462 130.40487244 -189.05308533 130.19212341 C-182.52103947 128.47853031 -175.92855783 127.18361375 -169.28111267 126.00535583 C-167.84239807 125.74818787 -167.84239807 125.74818787 -166.37461853 125.48582458 C-165.45430847 125.33113708 -164.53399841 125.17644958 -163.58580017 125.01707458 C-162.37512878 124.81344299 -162.37512878 124.81344299 -161.13999939 124.60569763 C-157.54604832 124.22730253 -154.02043732 124.30087494 -150.40611267 124.31785583 C-150.41943634 123.05109512 -150.43276001 121.78433441 -150.44648743 120.47918701 C-150.56807313 108.54606607 -150.65803965 96.61307064 -150.7169857 84.67947102 C-150.74830941 78.54410313 -150.79080288 72.40923494 -150.85874939 66.27415466 C-150.92390234 60.35432202 -150.95981088 54.43497023 -150.97537613 48.51480675 C-150.98646959 46.25529089 -151.00813266 43.9958016 -151.04049301 41.73649025 C-151.08400072 38.57333467 -151.09004893 35.41217028 -151.08726501 32.24876404 C-151.10883667 31.31296509 -151.13040833 30.37716614 -151.15263367 29.41300964 C-151.09356202 23.21708586 -151.09356202 23.21708586 -149.12892342 20.64720631 C-140.86147843 13.54139371 -128.67842674 11.34070115 -118.28111267 9.25535583 C-117.04393494 9.00495544 -115.8067572 8.75455505 -114.53208923 8.49656677 C-104.79474958 6.58472549 -95.01065727 5.21179517 -85.15611267 4.06785583 C-83.23774597 3.84150452 -83.23774597 3.84150452 -81.28062439 3.61058044 C-54.27322381 0.60680727 -27.14722443 -0.06297041 0 0 Z " fill="#EDC56B" transform="translate(240.40611267089844,61.68214416503906)"/>
<path d="M0 0 C42.61336074 -1.19185389 82.37711512 12.01638371 114 41 C114.53866699 41.49338867 115.07733398 41.98677734 115.63232422 42.49511719 C145.23617031 69.99883885 163.35130812 109.60704905 165 150 C166.41941167 191.16293853 153.67480272 232.3859686 125.625 263.125 C124.23166295 264.60508462 122.82636728 266.0721272 121.41210938 267.53222656 C119.99908123 269.00095498 118.61633448 270.49425258 117.234375 271.9921875 C97.14517839 293.36861933 68.51442762 307.90238996 40 314 C39.33871094 314.14808105 38.67742187 314.29616211 37.99609375 314.44873047 C19.13829054 318.54193121 -1.51824757 318.72148796 -20.51539612 315.47381592 C-31.60775417 313.96554238 -43.08009489 315.18473144 -54.19140625 315.984375 C-70.59438928 317.08584699 -86.94810466 317.31060979 -103.38354492 317.26074219 C-107.17523164 317.2493591 -110.96663698 317.25614355 -114.75831413 317.26761913 C-142.06229134 317.33757324 -169.36203882 316.37069167 -196.5 313.1875 C-197.23052582 313.10418427 -197.96105164 313.02086853 -198.7137146 312.93502808 C-251.9725649 306.81529994 -251.9725649 306.81529994 -263 295 C-264.10526977 291.87852225 -264.01838935 288.97457883 -263.90820312 285.68994141 C-263.90937134 284.77222961 -263.91053955 283.85451782 -263.91174316 282.90899658 C-263.9061879 279.88828944 -263.8440596 276.8715759 -263.78125 273.8515625 C-263.76632231 271.75265662 -263.75493778 269.65372281 -263.74694824 267.55477905 C-263.71645605 262.04012595 -263.63791692 256.52716842 -263.54931641 251.01318359 C-263.4673627 245.38272031 -263.43091634 239.75198202 -263.390625 234.12109375 C-263.30492091 223.07998567 -263.16844815 212.04013403 -263 201 C-262.46827179 201.41273163 -261.93654358 201.82546326 -261.38870239 202.2507019 C-260.68180267 202.79171539 -259.97490295 203.33272888 -259.24658203 203.89013672 C-258.54985382 204.42661835 -257.85312561 204.96309998 -257.13528442 205.51583862 C-253.91715456 207.75264792 -250.59422069 208.96650557 -246.875 210.125 C-245.71991943 210.49492065 -245.71991943 210.49492065 -244.54150391 210.87231445 C-228.09731398 215.90266858 -210.78326064 217.74043069 -193.75585938 219.68408203 C-191.30967839 219.96450001 -188.86580182 220.25932636 -186.421875 220.55859375 C-170.6783311 222.41574102 -154.82169186 223.1192077 -139 224 C-139.45890625 222.77925781 -139.9178125 221.55851563 -140.390625 220.30078125 C-141.99858973 216.00293877 -143.57601505 211.69461182 -145.13671875 207.37939453 C-145.83072335 205.46656397 -146.53820303 203.558625 -147.25 201.65234375 C-159.10467357 167.24600601 -154.32534044 124.46065756 -138.97265625 91.96875 C-122.15266339 57.69079427 -96.1320859 29.78799486 -61 14 C-60.36900391 13.71398926 -59.73800781 13.42797852 -59.08789062 13.13330078 C-40.82380688 4.9144631 -40.82380688 4.9144631 -32 5 C-29.7756802 9.9985101 -27.55198687 14.99729826 -25.32885742 19.99633789 C-24.57349307 21.69465548 -23.81796171 23.3928988 -23.06225586 25.09106445 C-21.97204701 27.54098006 -20.88245176 29.99116779 -19.79296875 32.44140625 C-19.29122383 33.56839684 -19.29122383 33.56839684 -18.77934265 34.71815491 C-16.81800154 39.13105671 -14.89240151 43.5570817 -13 48 C-14.05316406 48.29132813 -15.10632813 48.58265625 -16.19140625 48.8828125 C-37.64350476 54.92608062 -55.69508551 62.80206573 -71.63085938 78.65429688 C-72.80235201 79.80573543 -74.01469711 80.91535613 -75.234375 82.015625 C-93.52715122 98.84497912 -103.93581524 126.0900648 -105.12280273 150.52832031 C-105.48415915 162.38608293 -105.20547827 173.51370288 -102 185 C-101.80664062 185.69512695 -101.61328125 186.39025391 -101.4140625 187.10644531 C-96.87936054 202.97090419 -90.05226482 217.61717126 -79 230 C-78.32582031 230.81597656 -77.65164062 231.63195312 -76.95703125 232.47265625 C-59.28073389 253.30428537 -31.44912743 266.60463274 -4.34765625 268.8671875 C-3.18556641 268.93292969 -3.18556641 268.93292969 -2 269 C-1.07058594 269.06445312 -0.14117187 269.12890625 0.81640625 269.1953125 C24.99167679 270.06806595 47.82951731 262.82459292 68.03125 249.8828125 C70.32346292 248.42906694 72.5451632 247.14318381 75 246 C75 245.34 75 244.68 75 244 C76.23167573 243.01161824 77.51375338 242.08593243 78.8125 241.1875 C85.23217777 236.36511131 90.02458505 230.23965974 95 224 C95.62132812 223.31292969 96.24265625 222.62585938 96.8828125 221.91796875 C98.22617349 220.05059502 98.22617349 220.05059502 97.75292969 217.81274414 C96.84227512 214.41078198 95.51247275 211.27923829 94.0703125 208.078125 C93.61731529 207.05748962 93.61731529 207.05748962 93.15516663 206.01623535 C92.15065399 203.75830513 91.13814955 201.50406667 90.125 199.25 C89.41177285 197.65401264 88.69863998 196.05798314 87.9855957 194.46191406 C80.20372811 177.08679613 72.16287867 159.83085083 64.12792969 142.57177734 C61.18016998 136.23960799 58.2390189 129.90452079 55.3125 123.5625 C54.86092529 122.5921582 54.40935059 121.62181641 53.9440918 120.62207031 C53.54617432 119.75807617 53.14825684 118.89408203 52.73828125 118.00390625 C52.39837158 117.26986572 52.05846191 116.5358252 51.70825195 115.77954102 C51 114 51 114 51 112 C49.5459375 113.2684375 49.5459375 113.2684375 48.0625 114.5625 C45.01960343 116.74303722 43.16618221 117.32932762 39.4375 116.9375 C36.87417802 116.48590804 34.64779726 115.87477236 32.1875 115 C28.95356205 113.98543123 26.17224159 113.69177849 22.80078125 113.4375 C21.17329956 113.31181641 21.17329956 113.31181641 19.51293945 113.18359375 C18.68366943 113.12300781 17.85439941 113.06242187 17 113 C17.50974365 114.09465576 18.0194873 115.18931152 18.54467773 116.31713867 C20.43800098 120.38671894 22.32418519 124.45957437 24.20825195 128.53344727 C25.02402112 130.29476337 25.84171265 132.05519046 26.66137695 133.81469727 C27.84054359 136.34679494 29.01271525 138.88202988 30.18359375 141.41796875 C30.73363319 142.59325386 30.73363319 142.59325386 31.29478455 143.7922821 C33.02805188 147.56360118 34.21046381 150.91011367 35 155 C37.18137797 156.02450239 37.18137797 156.02450239 40 157 C47.4563439 161.44925871 52.06342834 167.33462282 55.375 175.3125 C56.97914081 184.77693081 56.65133723 193.43702607 52 202 C44.82654233 212.09543636 35.1860002 218.6197629 23 221 C20.59725937 221.19342277 18.41321348 221.15738349 16 221 C16.05800781 221.88042969 16.11601562 222.76085937 16.17578125 223.66796875 C16.54324427 233.12751678 16.54324427 233.12751678 13.9375 237.3125 C10.24639637 239.43292123 8.19302511 239.68613138 4 239 C1.80078125 237.41796875 1.80078125 237.41796875 0 235 C-0.390625 231.546875 -0.390625 231.546875 -0.25 227.75 C-0.21390625 226.48671875 -0.1778125 225.2234375 -0.140625 223.921875 C-0.09421875 222.95765625 -0.0478125 221.9934375 0 221 C-1.258125 221.103125 -2.51625 221.20625 -3.8125 221.3125 C-9.32186855 221.32038179 -14.32938212 220.13233657 -19.625 218.75 C-20.42397705 218.54544189 -21.2229541 218.34088379 -22.04614258 218.13012695 C-28.1048622 216.47786245 -34.21037557 214.44092138 -39 210.25 C-40.53247971 206.80192066 -40.72655017 203.64672295 -40 200 C-38.66967147 197.08066795 -37.5973168 196.16443066 -35 194 C-28.42230727 192.68446145 -23.12621577 195.22255594 -17.05078125 197.7109375 C-11.53496386 199.46621208 -5.72106135 200.11983672 0 201 C0 189.45 0 177.9 0 166 C-2.97 165.34 -5.94 164.68 -9 164 C-19.55626297 160.58707287 -30.73894032 155.06767201 -36.140625 144.91015625 C-40.02978552 136.2656131 -40.69120356 125.79323904 -37.5625 116.75 C-32.329821 105.58695147 -22.66052998 98.30585315 -11.3125 94.125 C-7.52128675 92.84408523 -3.98178853 92.91333471 0 93 C-0.03480469 91.95199219 -0.06960938 90.90398437 -0.10546875 89.82421875 C-0.13360937 88.44532853 -0.16090924 87.06642098 -0.1875 85.6875 C-0.22520508 84.65206055 -0.22520508 84.65206055 -0.26367188 83.59570312 C-0.33700102 78.5359921 -0.33700102 78.5359921 1.23046875 76.04296875 C3.45594769 74.73126262 4.92391808 74.59923918 7.5 74.625 C8.66015625 74.61339844 8.66015625 74.61339844 9.84375 74.6015625 C12 75 12 75 13.76953125 76.07421875 C15.67543144 79.0571038 15.28346697 81.70070004 15.1875 85.1875 C15.16042969 86.45980469 15.13335937 87.73210937 15.10546875 89.04296875 C15.05326172 90.50669922 15.05326172 90.50669922 15 92 C16.7325 91.87625 16.7325 91.87625 18.5 91.75 C24.07099979 91.71440256 29.16595052 93.12922487 34.50195312 94.57714844 C37.43185896 95.37119538 39.94752714 96 43 96 C42.56880859 95.06768555 42.13761719 94.13537109 41.69335938 93.17480469 C32.84355546 74.0281337 24.09933331 54.84064998 15.56640625 35.55053711 C14.92064345 34.09095187 14.27481139 32.63139726 13.62890625 31.171875 C13.16365036 30.12055138 13.16365036 30.12055138 12.68899536 29.04798889 C9.43109795 21.69756949 6.10250325 14.37981031 2.74047852 7.07641602 C0 1.10182497 0 1.10182497 0 0 Z " fill="#FDCC72" transform="translate(319,133)"/>
<path d="M0 0 C1.31291016 0.00064453 2.62582031 0.00128906 3.97851562 0.00195312 C13.63997735 0.04665912 13.63997735 0.04665912 17.0625 1.1875 C18.12438965 2.81044006 18.12438965 2.81044006 19.09960938 4.93774414 C19.47009399 5.73269791 19.84057861 6.52765167 20.22229004 7.34669495 C20.61299683 8.21326218 21.00370361 9.07982941 21.40625 9.97265625 C22.02179749 11.30713051 22.02179749 11.30713051 22.64978027 12.66856384 C23.51861277 14.55700643 24.38244838 16.44775466 25.24169922 18.34057617 C26.54805408 21.21817892 27.86820886 24.08909322 29.19140625 26.95898438 C30.03467687 28.79649767 30.87714993 30.63437723 31.71875 32.47265625 C32.10945679 33.32505386 32.50016357 34.17745148 32.90270996 35.05567932 C35.16194974 40.0379147 37.19987226 45.04343447 39.0625 50.1875 C34.50802916 49.65791037 30.14766395 48.75940341 25.6875 47.6875 C20.46276931 46.44926903 15.40908329 45.64060028 10.0625 45.1875 C10.01351562 44.20007813 9.96453125 43.21265625 9.9140625 42.1953125 C9.80191406 40.27332031 9.80191406 40.27332031 9.6875 38.3125 C9.61789062 37.03632813 9.54828125 35.76015625 9.4765625 34.4453125 C9.39008894 31.10688301 9.39008894 31.10688301 7.0625 29.1875 C4.9226368 28.869116 4.9226368 28.869116 2.5625 28.9375 C1.7684375 28.93234375 0.974375 28.9271875 0.15625 28.921875 C-2.15642751 28.99810091 -2.15642751 28.99810091 -3.9375 31.1875 C-4.24349063 33.75666657 -4.44837087 36.23508384 -4.5625 38.8125 C-4.60117187 39.51890625 -4.63984375 40.2253125 -4.6796875 40.953125 C-4.77397724 42.69748524 -4.85682891 44.44245691 -4.9375 46.1875 C-6.01064453 46.28224609 -6.01064453 46.28224609 -7.10546875 46.37890625 C-17.88982661 47.70428011 -28.07445962 52.06815719 -35.5078125 60.22265625 C-42.15336942 69.3557577 -43.78973337 78.06176841 -42.9375 89.1875 C-40.95491599 97.58009657 -37.54737299 103.85936795 -30.1875 108.625 C-22.32948704 113.47785395 -13.65602886 116.28132371 -4.9375 119.1875 C-4.9375 130.7375 -4.9375 142.2875 -4.9375 154.1875 C-11.13052199 154.1875 -14.51028611 154.01997126 -20.125 152.3125 C-21.29417969 151.96445312 -22.46335937 151.61640625 -23.66796875 151.2578125 C-26.9375 150.1875 -26.9375 150.1875 -29.609375 149.08203125 C-33.36754998 147.63803449 -35.91178116 147.74019791 -39.9375 148.1875 C-42.57433762 150.2969701 -43.6456633 151.80891901 -44.34765625 155.125 C-44.64121175 159.09928983 -44.45924025 160.54046378 -41.85546875 163.76953125 C-38.53424603 166.52165556 -35.79625964 167.60263719 -31.6875 168.875 C-30.68843628 169.18679199 -30.68843628 169.18679199 -29.66918945 169.50488281 C-21.41977358 172.03514477 -13.53288095 173.50561174 -4.9375 174.1875 C-4.88142578 175.65123047 -4.88142578 175.65123047 -4.82421875 177.14453125 C-4.75847656 178.41683594 -4.69273437 179.68914062 -4.625 181 C-4.56699219 182.26457031 -4.50898438 183.52914062 -4.44921875 184.83203125 C-4.20041532 188.10701028 -4.20041532 188.10701028 -2.609375 190.109375 C0.28984276 191.97896402 2.73290074 191.59639815 6.0625 191.1875 C9.10547737 188.94214327 9.96492077 187.70542054 10.671875 183.953125 C10.71828125 182.79296875 10.7646875 181.6328125 10.8125 180.4375 C10.89757812 178.68179688 10.89757812 178.68179688 10.984375 176.890625 C11.01015625 175.99859375 11.0359375 175.1065625 11.0625 174.1875 C11.93390625 174.04054688 12.8053125 173.89359375 13.703125 173.7421875 C25.24407807 171.56889114 36.80265084 168.08025445 44.0625 158.1875 C49.58454972 148.8591288 51.85559947 140.01565998 49.37890625 129.203125 C47.3879782 123.22207975 44.89772996 118.30856917 40.0625 114.1875 C38.50422187 113.47663733 36.94272275 112.77281335 35.37890625 112.07421875 C27.51279071 107.43903415 25.00813536 98.86346433 21.625 90.8125 C20.92789666 89.2201402 20.22804547 87.62898041 19.52539062 86.0390625 C16.50576128 79.154907 13.66269859 72.24158235 11.0625 65.1875 C18.15207893 65.50527093 24.46581988 66.07558613 31.13671875 68.5390625 C33.95566104 69.48823982 36.12840067 69.65428853 39.0625 69.1875 C41.79469193 67.26890833 41.79469193 67.26890833 44.0625 65.1875 C44.7225 65.1875 45.3825 65.1875 46.0625 65.1875 C54.9663371 83.87553752 63.68646404 102.62779954 72.02124023 121.57714844 C75.4904019 129.45473532 79.02009389 137.29736546 82.66015625 145.09765625 C83.41471683 146.72078297 84.16927417 148.34391121 84.92382812 149.96704102 C86.36181099 153.05825254 87.8146168 156.14191819 89.27539062 159.22241211 C89.92503175 160.61676742 90.5741494 162.01136678 91.22265625 163.40625 C91.5269606 164.03680801 91.83126495 164.66736603 92.14479065 165.31703186 C93.30304652 167.83498223 94.1131667 169.67712437 93.83569336 172.47216797 C89.90918298 181.18314426 80.04451532 191.97235974 72.0625 197.1875 C71.4025 197.1875 70.7425 197.1875 70.0625 197.1875 C70.0625 197.8475 70.0625 198.5075 70.0625 199.1875 C67.93073028 200.86289948 65.81812967 202.38126078 63.5625 203.875 C62.89049561 204.32053223 62.21849121 204.76606445 61.52612305 205.22509766 C54.403277 209.80978536 46.93921016 213.13035851 39.0625 216.1875 C38.08152344 216.58710938 37.10054687 216.98671875 36.08984375 217.3984375 C10.07161635 227.13240162 -19.92807621 224.71294474 -44.96484375 213.40234375 C-72.82952939 200.30165871 -93.97996199 178.42813537 -104.64501953 149.25195312 C-114.98394244 119.56437186 -112.79333884 88.69002052 -99.21435547 60.40527344 C-86.47759764 35.07127499 -63.45817887 15.03054582 -36.71484375 5.6484375 C-32.8225319 4.36647631 -28.91265077 3.18503145 -24.9375 2.1875 C-24.21973389 1.99986084 -23.50196777 1.81222168 -22.76245117 1.61889648 C-15.19739688 -0.14620485 -7.73534675 -0.07366997 0 0 Z " fill="#F8B763" transform="translate(323.9375,179.8125)"/>
<path d="M0 0 C0.53172821 0.41273163 1.06345642 0.82546326 1.61129761 1.2507019 C2.31819733 1.79171539 3.02509705 2.33272888 3.75341797 2.89013672 C4.45014618 3.42661835 5.14687439 3.96309998 5.86471558 4.51583862 C9.08284544 6.75264792 12.40577931 7.96650557 16.125 9.125 C16.89505371 9.37161377 17.66510742 9.61822754 18.45849609 9.87231445 C34.90417775 14.90312491 52.21959019 16.74057647 69.24853516 18.68408203 C71.6817104 18.96345459 74.11230393 19.25835751 76.54296875 19.55859375 C77.9868987 19.72725284 79.43090933 19.89522263 80.875 20.0625 C81.59445801 20.15362061 82.31391602 20.24474121 83.05517578 20.33862305 C87.77438216 20.86905357 92.39125539 21.0159833 97.14193726 20.93437195 C121.63907531 20.54222191 121.63907531 20.54222191 127.31494141 24.69287109 C130.81281032 29.08281396 132.37033756 34.15974393 134.03759766 39.45361328 C135.64045864 43.69456713 138.26425735 47.03584221 141.0625 50.5625 C141.57184082 51.21943848 142.08118164 51.87637695 142.60595703 52.55322266 C146.82615785 57.92724579 151.28198603 63.05688994 156 68 C156.57234375 68.63550781 157.1446875 69.27101563 157.734375 69.92578125 C169.3443715 82.33203858 183.96876882 91.36677508 199 99 C200.45792969 99.75023437 200.45792969 99.75023437 201.9453125 100.515625 C209.65651405 104.24152667 217.8570646 106.73744825 225.99462891 109.35302734 C228.66957646 110.2160187 231.33524598 111.1061 234 112 C234 112.33 234 112.66 234 113 C230.39628576 113.31785232 226.79195501 113.62817063 223.1875 113.9375 C222.20201172 114.02451172 221.21652344 114.11152344 220.20117188 114.20117188 C216.80219273 114.49067483 213.40219876 114.75110266 210 115 C208.73567139 115.09337646 207.47134277 115.18675293 206.16870117 115.28295898 C191.02368285 116.28724229 175.843407 116.18733765 160.67260742 116.18530273 C157.5426649 116.18522219 154.41287101 116.192063 151.28295898 116.20581055 C122.94763411 116.32810681 94.66909508 115.49164021 66.5 112.1875 C65.76947418 112.10418427 65.03894836 112.02086853 64.2862854 111.93502808 C11.0274351 105.81529994 11.0274351 105.81529994 0 94 C-1.10526977 90.87852225 -1.01838935 87.97457883 -0.90820312 84.68994141 C-0.90937134 83.77222961 -0.91053955 82.85451782 -0.91174316 81.90899658 C-0.9061879 78.88828944 -0.8440596 75.8715759 -0.78125 72.8515625 C-0.76632231 70.75265662 -0.75493778 68.65372281 -0.74694824 66.55477905 C-0.71645605 61.04012595 -0.63791692 55.52716842 -0.54931641 50.01318359 C-0.4673627 44.38272031 -0.43091634 38.75198202 -0.390625 33.12109375 C-0.30492091 22.07998567 -0.16844815 11.04013403 0 0 Z " fill="#FED06C" transform="translate(56,334)"/>
<path d="M0 0 C42.61336074 -1.19185389 82.37711512 12.01638371 114 41 C114.53866699 41.49338867 115.07733398 41.98677734 115.63232422 42.49511719 C145.23617031 69.99883885 163.35130812 109.60704905 165 150 C166.4657317 192.50621929 152.77779738 233.92423881 123.6171875 265.3046875 C123.08351563 265.86414063 122.54984375 266.42359375 122 267 C118.85421746 263.28448469 117.04923823 259.08667436 115.05859375 254.69140625 C114.69024918 253.88767075 114.3219046 253.08393524 113.94239807 252.25584412 C112.76959261 249.69342808 111.60362009 247.1279642 110.4375 244.5625 C109.64950312 242.84030504 108.86109601 241.11829772 108.07226562 239.39648438 C107.31733525 237.74496216 106.56276588 236.09327486 105.80859375 234.44140625 C105.28041298 233.28494347 105.28041298 233.28494347 104.74156189 232.1051178 C99.40887602 220.36774939 99.40887602 220.36774939 100 216 C101.13992145 213.72883671 102.32094011 211.60848668 103.625 209.4375 C107.05342819 203.39384541 109.41941278 197.35086667 111.375 190.6875 C111.61299316 189.87659912 111.85098633 189.06569824 112.09619141 188.23022461 C112.77211553 185.82891521 113.39567689 183.42025237 114 181 C114.19867676 180.25331055 114.39735352 179.50662109 114.60205078 178.73730469 C116.47438658 170.84874983 116.2229754 162.92377169 116.125 154.875 C116.11494507 153.42708956 116.10582368 151.97917232 116.09765625 150.53125 C116.07585344 147.02068963 116.04146381 143.51038972 116 140 C115.38229736 140.65750244 114.76459473 141.31500488 114.12817383 141.99243164 C112 144 112 144 109.94921875 144.12109375 C106.99133091 142.41986367 106.25603781 140.11709729 104.8125 137.0625 C99.00443179 125.57114937 90.8983378 118.60170039 80 112 C80.09765625 110.3125 80.09765625 110.3125 81 108 C83.11494119 106.20445809 85.18057975 104.59312018 87.4375 103 C92.76472949 99.39989822 92.76472949 99.39989822 96 94 C94.29031549 91.78282988 92.57440695 89.57111186 90.84765625 87.3671875 C89.46272101 85.59283072 88.10051825 83.800691 86.75 82 C82.81195219 77.33890079 77.79436202 73.72530455 73 70 C72.27425781 69.4121875 71.54851562 68.824375 70.80078125 68.21875 C65.32864943 64.0532493 59.32700576 60.92718594 53.1875 57.875 C52.28314209 57.41923584 51.37878418 56.96347168 50.44702148 56.49389648 C45.73179367 54.26023726 41.76991508 52.76813619 36.53125 52.515625 C30.62791361 52.15963414 25.74029124 51.82989171 21 48 C14.14740372 38.76143316 10.48377063 26.90097472 6.57421875 16.19824219 C4.89750387 11.64028476 2.93202904 7.24363826 0.84765625 2.85791016 C0 1 0 1 0 0 Z " fill="#FED275" transform="translate(319,133)"/>
<path d="M0 0 C2.45134129 0.00545589 4.90267287 0.00781239 7.35401917 0.00987244 C33.18941623 0.04365508 58.87683833 0.65018233 84.59388733 3.31785583 C85.33030457 3.39282288 86.0667218 3.46778992 86.82545471 3.54502869 C143.45896588 9.3581642 143.45896588 9.3581642 156.59388733 21.31785583 C157.96888733 24.31785583 157.96888733 24.31785583 157.59388733 27.31785583 C150.31445264 35.84519361 137.05918022 38.2370471 126.59388733 40.50535583 C124.96580139 40.87563904 124.96580139 40.87563904 123.30482483 41.25340271 C63.87473738 54.55070748 -3.01297519 53.67217969 -63.40611267 48.31785583 C-66.02718496 48.10925268 -68.64827932 47.90092667 -71.26939392 47.69285583 C-92.51113683 45.94085399 -113.85680953 43.42716311 -134.21861267 36.88035583 C-135.0540863 36.61642029 -135.88955994 36.35248474 -136.75035095 36.08055115 C-142.17520992 34.19491098 -146.53993689 31.63413247 -150.40611267 27.31785583 C-151.21861267 24.75535583 -151.21861267 24.75535583 -150.40611267 22.31785583 C-142.83985064 13.67069923 -129.05965498 11.41716248 -118.28111267 9.25535583 C-117.04393494 9.00495544 -115.8067572 8.75455505 -114.53208923 8.49656677 C-104.79474958 6.58472549 -95.01065727 5.21179517 -85.15611267 4.06785583 C-83.87720154 3.91695496 -82.59829041 3.76605408 -81.28062439 3.61058044 C-54.27322381 0.60680727 -27.14722443 -0.06297041 0 0 Z " fill="#FDBB1F" transform="translate(240.40611267089844,61.68214416503906)"/>
<path d="M0 0 C0.53132034 0.41273163 1.06264069 0.82546326 1.61006165 1.2507019 C2.31664413 1.79171539 3.02322662 2.33272888 3.7512207 2.89013672 C4.44754105 3.42661835 5.14386139 3.96309998 5.86128235 4.51583862 C9.09785969 6.76185884 12.44810016 7.96540405 16.1875 9.125 C16.95143066 9.37088867 17.71536133 9.61677734 18.50244141 9.87011719 C26.9798628 12.48354752 35.65498602 14.10375799 44.39477539 15.5625 C46.17493675 15.86144566 47.95275388 16.1746076 49.72827148 16.5 C58.21758191 18.0172568 66.72816064 18.7897728 75.3125 19.5 C76.81107447 19.62755 78.30960936 19.75556581 79.80810547 19.8840332 C82.79423762 20.13942608 85.78055931 20.39237601 88.76708984 20.64306641 C94.72097268 21.1435641 100.67288579 21.66646852 106.625 22.1875 C109.74994783 22.45893955 112.87497036 22.72950354 116 23 C114.94676134 27.76395448 113.88068831 32.5238387 112.78125 37.27734375 C106.94653346 62.82248316 106.33019814 86.90934597 108 113 C23.83627172 114.2423866 23.83627172 114.2423866 2 99 C-0.02736162 95.95895757 -0.24941232 95.40021277 -0.24050903 91.9947052 C-0.24325836 91.18282242 -0.24600769 90.37093964 -0.24884033 89.53445435 C-0.24164978 88.64756927 -0.23445923 87.7606842 -0.22705078 86.84692383 C-0.22734283 85.91014297 -0.22763489 84.97336212 -0.22793579 84.00819397 C-0.22654098 80.90771261 -0.21097255 77.8074707 -0.1953125 74.70703125 C-0.19158291 72.55897656 -0.18873568 70.41092016 -0.18673706 68.26286316 C-0.17909635 62.60587884 -0.15944405 56.94899701 -0.1373291 51.29205322 C-0.11688013 45.52088813 -0.10773737 39.74970649 -0.09765625 33.97851562 C-0.07619862 22.65229869 -0.04205735 11.32615786 0 0 Z " fill="#FED06C" transform="translate(28,207)"/>
<path d="M0 0 C0.60269211 0.4131395 1.20538422 0.82627899 1.82633972 1.25193787 C2.62510025 1.79326859 3.42386078 2.3345993 4.24682617 2.89233398 C5.03514328 3.42922348 5.82346039 3.96611298 6.63566589 4.51927185 C10.0411745 6.65206368 13.47918316 7.91757739 17.3125 9.0625 C18.52981812 9.42964111 18.52981812 9.42964111 19.77172852 9.80419922 C38.97739732 15.32009443 58.67014279 17.45751552 78.5 19.25 C79.87863724 19.37462616 79.87863724 19.37462616 81.28512573 19.50177002 C102.76262833 21.41084938 124.19602326 22.17254842 145.75 22.5625 C148.01953663 22.60583903 150.28906794 22.64945729 152.55859375 22.69335938 C158.03900565 22.79877942 163.51947214 22.90080076 169 23 C166.58958739 24.60694174 164.59731567 25.67406137 161.96484375 26.77734375 C123.44376978 43.27751392 91.06179165 70.73405587 70.05859375 107.20703125 C69 109 69 109 68 110 C59.51648294 110.69462644 50.94416978 109.54530409 42.52270508 108.56567383 C40.33490767 108.31506675 38.14548007 108.08787054 35.95507812 107.86132812 C28.53334512 107.04113605 21.44154338 105.79643032 14.29296875 103.60546875 C13.32403435 103.31184196 13.32403435 103.31184196 12.33552551 103.01228333 C7.76051125 101.51239874 3.44575492 99.44575492 0 96 C-0.0952822 93.01701786 -0.12552175 90.05723655 -0.11352539 87.07397461 C-0.11367142 86.13748581 -0.11381744 85.20099701 -0.1139679 84.23612976 C-0.11326837 81.12484461 -0.10547415 78.01361851 -0.09765625 74.90234375 C-0.09579221 72.75142957 -0.09436824 70.60051497 -0.09336853 68.44960022 C-0.08954225 62.77618242 -0.07971102 57.10279005 -0.06866455 51.42938232 C-0.0584528 45.64498234 -0.05387142 39.86057827 -0.04882812 34.07617188 C-0.03808885 22.71743672 -0.02101111 11.35872047 0 0 Z " fill="#FED06C" transform="translate(90,89)"/>
<path d="M0 0 C5.59458983 3.06455239 10.98139788 4.85729204 17.1875 6.25 C17.1875 6.58 17.1875 6.91 17.1875 7.25 C15.71494751 7.40033691 15.71494751 7.40033691 14.21264648 7.55371094 C10.49304569 7.9367398 6.7753004 8.33583225 3.05786133 8.73925781 C1.46325746 8.91015966 -0.13179085 9.07697509 -1.72729492 9.23925781 C-19.5689141 10.65989948 -19.5689141 10.65989948 -35.8125 17.25 C-35.8125 17.91 -35.8125 18.57 -35.8125 19.25 C-23.24507131 26.79045721 -6.00969813 26.82261498 8.1875 28.25 C9.69884521 28.40299561 9.69884521 28.40299561 11.24072266 28.55908203 C36.46100115 30.98703196 61.87356849 30.89506571 87.1875 31.25 C86.1011807 34.57151156 84.99422107 37.84978532 83.63671875 41.0703125 C69.05786873 76.46900111 65.93597675 116.89523796 79.1875 153.25 C79.66629445 154.58951174 80.14414938 155.92935966 80.62109375 157.26953125 C81.48830858 159.70445021 82.37217682 162.13045001 83.26953125 164.5546875 C84.1875 167.25 84.1875 167.25 84.1875 169.25 C61.12541853 169.87706566 38.0400799 167.07322027 15.1875 164.25 C14.25647461 164.13543457 13.32544922 164.02086914 12.36621094 163.90283203 C-29.36121475 158.61592576 -29.36121475 158.61592576 -38.8125 148.25 C-40.0625 145.375 -40.0625 145.375 -39.8125 142.25 C-33.25535802 134.4970919 -22.3531843 131.2348651 -12.59179688 129.95996094 C-6.65523374 129.53515737 -0.7449046 129.9090672 5.1875 130.25 C6.62186555 130.32502613 8.05627682 130.39918111 9.49072266 130.47265625 C19.7271239 131.0006491 29.9580801 131.60138923 40.1875 132.25 C39.9709375 130.55810547 39.9709375 130.55810547 39.75 128.83203125 C36.22606905 99.7290602 38.10454958 69.97811365 48.1875 42.25 C47.46336914 42.25942627 46.73923828 42.26885254 45.99316406 42.27856445 C38.60062321 42.33258961 31.30496584 42.02848533 23.9375 41.4375 C22.8148877 41.34839355 21.69227539 41.25928711 20.53564453 41.16748047 C-48.77658959 35.4214389 -48.77658959 35.4214389 -65.875 21.8125 C-67.8125 19.25 -67.8125 19.25 -67.68115234 16.78466797 C-66.09924729 12.16877751 -61.9542551 10.44158013 -57.8125 8.25 C-54.66135439 6.9371324 -51.48633385 5.9930138 -48.1875 5.125 C-46.84909058 4.75725464 -46.84909058 4.75725464 -45.48364258 4.38208008 C-35.87216128 1.83774188 -26.09729087 0.08587688 -16.26782227 -1.37841797 C-14.69884752 -1.61586249 -13.13330158 -1.87815065 -11.57397461 -2.17236328 C-6.75948756 -2.99952436 -4.18304535 -2.45717349 0 0 Z " fill="#EDC56C" transform="translate(95.8125,187.75)"/>
<path d="M0 0 C14.26238829 14.26238829 16.19626377 34.89986486 16.2588501 53.86999512 C16.2502976 58.91643837 16.1578529 63.95613109 16 69 C16.93666504 69.25612061 17.87333008 69.51224121 18.83837891 69.77612305 C20.70115479 70.29493042 20.70115479 70.29493042 22.6015625 70.82421875 C23.82697754 71.16283936 25.05239258 71.50145996 26.31494141 71.8503418 C36.00067543 74.87208034 46.06692316 79.63824822 51.5625 88.52734375 C56.4215859 97.92801846 57.78791098 107.31834582 54.5625 117.625 C50.49061301 127.52611468 42.58184502 134.54708736 33 139 C27.26674363 141.25725513 22.15311596 142.40129017 16 142 C16.05800781 142.88042969 16.11601562 143.76085937 16.17578125 144.66796875 C16.54324427 154.12751678 16.54324427 154.12751678 13.9375 158.3125 C10.24639637 160.43292123 8.19302511 160.68613138 4 160 C1.80078125 158.41796875 1.80078125 158.41796875 0 156 C-0.390625 152.546875 -0.390625 152.546875 -0.25 148.75 C-0.21390625 147.48671875 -0.1778125 146.2234375 -0.140625 144.921875 C-0.09421875 143.95765625 -0.0478125 142.9934375 0 142 C-1.258125 142.103125 -2.51625 142.20625 -3.8125 142.3125 C-9.32186855 142.32038179 -14.32938212 141.13233657 -19.625 139.75 C-20.42397705 139.54544189 -21.2229541 139.34088379 -22.04614258 139.13012695 C-28.1048622 137.47786245 -34.21037557 135.44092138 -39 131.25 C-40.53247971 127.80192066 -40.72655017 124.64672295 -40 121 C-38.66967147 118.08066795 -37.5973168 117.16443066 -35 115 C-28.42230727 113.68446145 -23.12621577 116.22255594 -17.05078125 118.7109375 C-11.53496386 120.46621208 -5.72106135 121.11983672 0 122 C0 110.45 0 98.9 0 87 C-2.97 86.34 -5.94 85.68 -9 85 C-19.55626297 81.58707287 -30.73894032 76.06767201 -36.140625 65.91015625 C-40.02978552 57.2656131 -40.69120356 46.79323904 -37.5625 37.75 C-32.329821 26.58695147 -22.66052998 19.30585315 -11.3125 15.125 C-7.2074718 13.73805843 -4.76710658 14 0 14 C0 9.38 0 4.76 0 0 Z " fill="#FED888" transform="translate(319,212)"/>
<path d="M0 0 C2.2243198 4.9985101 4.44801313 9.99729826 6.67114258 14.99633789 C7.42650693 16.69465548 8.18203829 18.3928988 8.93774414 20.09106445 C10.02795299 22.54098006 11.11754824 24.99116779 12.20703125 27.44140625 C12.54152786 28.19273331 12.87602448 28.94406036 13.22065735 29.71815491 C15.18199846 34.13105671 17.10759849 38.5570817 19 43 C17.94683594 43.29132813 16.89367187 43.58265625 15.80859375 43.8828125 C-5.64350476 49.92608062 -23.69508551 57.80206573 -39.63085938 73.65429688 C-40.80235201 74.80573543 -42.01469711 75.91535613 -43.234375 77.015625 C-60.66995234 93.05635615 -70.09835517 117.97010317 -73 141 C-73.66 141 -74.32 141 -75 141 C-79.3463427 131.80918438 -83.66502448 122.60589291 -87.95507812 113.38867188 C-89.26598293 110.57225307 -90.58224877 107.75846983 -91.90429688 104.94726562 C-93.62401213 101.28687591 -95.3135967 97.61335625 -97 93.9375 C-97.78262207 92.2827063 -97.78262207 92.2827063 -98.58105469 90.59448242 C-102.9416637 80.97668357 -102.9416637 80.97668357 -101 75 C-86.73699535 46.00704709 -58.02089975 22.04169122 -29 9 C-28.36900391 8.71398926 -27.73800781 8.42797852 -27.08789062 8.13330078 C-8.82380688 -0.0855369 -8.82380688 -0.0855369 0 0 Z " fill="#FED888" transform="translate(287,138)"/>
<path d="M0 0 C1.96695986 -0.00322714 3.9339195 -0.0065922 5.90087891 -0.01008606 C10.01237542 -0.01603925 14.12385105 -0.01793024 18.23535156 -0.01733398 C22.38318288 -0.01725324 26.53090254 -0.02411822 30.67871094 -0.0378418 C54.70847454 -0.11614475 78.54471115 0.1169046 102.5 2.16796875 C103.82937149 2.27906848 105.15875853 2.38998223 106.48815918 2.50073242 C145.07586627 5.74383502 145.07586627 5.74383502 151.5 12.16796875 C151.5 13.15796875 151.5 14.14796875 151.5 15.16796875 C144.36029471 18.94767707 137.45864356 20.25409927 129.5 21.29296875 C128.39527344 21.44894531 127.29054688 21.60492188 126.15234375 21.765625 C122.60445585 22.25850036 119.0534507 22.71701137 115.5 23.16796875 C114.85313232 23.25298645 114.20626465 23.33800415 113.53979492 23.42559814 C102.04440142 24.93117905 90.58018036 25.77964507 79 26.29296875 C78.07924683 26.33466187 77.15849365 26.37635498 76.20983887 26.41931152 C30.54240523 28.42469491 -15.59212992 28.42507329 -61.0625 23.29296875 C-61.74593475 23.21792114 -62.42936951 23.14287354 -63.1335144 23.06555176 C-86.61291866 20.42602297 -86.61291866 20.42602297 -94.5 15.16796875 C-94.375 13.35546875 -94.375 13.35546875 -93.5 11.16796875 C-83.80131972 4.43277411 -69.08927328 4.37944576 -57.68066406 3.28759766 C-55.13515516 3.0439408 -52.59102184 2.78870511 -50.046875 2.53125 C-48.37767129 2.36520922 -46.70840227 2.19982344 -45.0390625 2.03515625 C-44.3041861 1.96223358 -43.56930969 1.88931091 -42.81216431 1.81417847 C-40.37594217 1.58194034 -37.93884859 1.3708643 -35.5 1.16796875 C-34.43964539 1.07873642 -33.37929077 0.98950409 -32.2868042 0.89756775 C-21.51926355 0.08052762 -10.79329521 0.00423609 0 0 Z " fill="#F3A24F" transform="translate(215.5,73.83203125)"/>
<path d="M0 0 C31.64924108 -0.96952504 31.64924108 -0.96952504 38.49316406 3.70166016 C42.01524712 8.04515846 43.48017581 13.16360029 45.06982422 18.45361328 C46.62674985 22.71574828 49.25897549 26.03887459 52.0625 29.5625 C52.57200195 30.21943848 53.08150391 30.87637695 53.60644531 31.55322266 C57.82572341 36.92781183 62.28209455 42.05700364 67 47 C67.85851562 47.95326172 67.85851562 47.95326172 68.734375 48.92578125 C80.3443715 61.33203858 94.96876882 70.36677508 110 78 C111.45792969 78.75023437 111.45792969 78.75023437 112.9453125 79.515625 C120.65651405 83.24152667 128.8570646 85.73744825 136.99462891 88.35302734 C139.66957646 89.2160187 142.33524598 90.1061 145 91 C145 91.33 145 91.66 145 92 C116.84992993 94.48287304 116.84992993 94.48287304 104.73388672 94.88134766 C102.72619102 94.96848287 100.71992655 95.09038723 98.71533203 95.23193359 C74.02935803 96.95768016 74.02935803 96.95768016 65.0625 89.75 C63.20283141 88.12655696 61.43260527 86.46019723 59.6953125 84.70654297 C58.0101202 83.01018724 56.26472468 81.42559086 54.46875 79.84765625 C51.70917076 77.40758668 49.03254734 74.89901681 46.38720703 72.3359375 C45.1595468 71.15365014 43.90761589 69.99667882 42.65234375 68.84375 C30.40906468 57.28929426 16.37826179 40.13478538 11 24 C12.32451172 23.92652344 12.32451172 23.92652344 13.67578125 23.8515625 C21.25029197 23.37968106 28.57192807 22.56141104 36 21 C31.57000871 19.94940918 27.15551139 19.71385281 22.625 19.5 C21.15870948 19.43005328 19.69255601 19.35716752 18.2265625 19.28125 C17.58283691 19.25095703 16.93911133 19.22066406 16.27587891 19.18945312 C13.16934703 18.93085317 10.08594653 18.4408495 7 18 C4.69 12.06 2.38 6.12 0 0 Z " fill="#EDC56C" transform="translate(145,355)"/>
<path d="M0 0 C7.08957893 0.31777093 13.40331988 0.88808613 20.07421875 3.3515625 C22.89316104 4.30073982 25.06590067 4.46678853 28 4 C30.73219193 2.08140833 30.73219193 2.08140833 33 0 C33.66 0 34.32 0 35 0 C43.9038371 18.68803752 52.62396404 37.44029954 60.95874023 56.38964844 C64.4279019 64.26723532 67.95759389 72.10986546 71.59765625 79.91015625 C72.35221683 81.53328297 73.10677417 83.15641121 73.86132812 84.77954102 C75.29931099 87.87075254 76.7521168 90.95441819 78.21289062 94.03491211 C78.86253175 95.42926742 79.5116494 96.82386678 80.16015625 98.21875 C80.4644606 98.84930801 80.76876495 99.47986603 81.08229065 100.12953186 C82.24054652 102.64748223 83.0506667 104.48962437 82.77319336 107.28466797 C78.71328833 116.29158073 68.61695095 127.30670448 60 132 C54.85031184 122.13242983 50.07218014 112.08137978 45.41046143 101.97561646 C44.76332912 100.57846265 44.11079726 99.18379679 43.45281982 97.79171753 C42.51450221 95.80270096 41.59692024 93.80527957 40.68359375 91.8046875 C39.87233032 90.05647705 39.87233032 90.05647705 39.04467773 88.27294922 C37.8832897 84.63434955 38.09148329 82.66168625 39 79 C39.82858314 69.17925233 38.53647514 60.16941098 32.375 52.1875 C29.89152528 49.54924318 27.59835688 48.35284537 24.31640625 46.88671875 C16.45029071 42.25153415 13.94563536 33.67596433 10.5625 25.625 C9.86539666 24.0326402 9.16554547 22.44148041 8.46289062 20.8515625 C5.44326128 13.967407 2.60019859 7.05408235 0 0 Z " fill="#F9A83D" transform="translate(335,245)"/>
<path d="M0 0 C5.59458983 3.06455239 10.98139788 4.85729204 17.1875 6.25 C17.1875 6.58 17.1875 6.91 17.1875 7.25 C15.71494751 7.40033691 15.71494751 7.40033691 14.21264648 7.55371094 C10.49304569 7.9367398 6.7753004 8.33583225 3.05786133 8.73925781 C1.46325746 8.91015966 -0.13179085 9.07697509 -1.72729492 9.23925781 C-19.5689141 10.65989948 -19.5689141 10.65989948 -35.8125 17.25 C-35.8125 17.91 -35.8125 18.57 -35.8125 19.25 C-23.24507131 26.79045721 -6.00969813 26.82261498 8.1875 28.25 C9.69884521 28.40299561 9.69884521 28.40299561 11.24072266 28.55908203 C36.46100115 30.98703196 61.87356849 30.89506571 87.1875 31.25 C85.8279241 35.4705965 84.24706153 39.3181098 82.1875 43.25 C-37.41427168 44.46491642 -37.41427168 44.46491642 -65.875 21.8125 C-67.8125 19.25 -67.8125 19.25 -67.68115234 16.78466797 C-66.09924729 12.16877751 -61.9542551 10.44158013 -57.8125 8.25 C-54.66135439 6.9371324 -51.48633385 5.9930138 -48.1875 5.125 C-46.84909058 4.75725464 -46.84909058 4.75725464 -45.48364258 4.38208008 C-35.87216128 1.83774188 -26.09729087 0.08587688 -16.26782227 -1.37841797 C-14.69884752 -1.61586249 -13.13330158 -1.87815065 -11.57397461 -2.17236328 C-6.75948756 -2.99952436 -4.18304535 -2.45717349 0 0 Z " fill="#FDBB1F" transform="translate(95.8125,187.75)"/>
<path d="M0 0 C12.92857907 1.67871657 25.91536302 2.44221936 38.92456055 3.21313477 C39.92455078 3.27243164 40.92454102 3.33172852 41.95483398 3.39282227 C46.94386423 3.68455811 51.93346522 3.95923701 56.92456055 4.21313477 C56.09311523 5.65946289 56.09311523 5.65946289 55.24487305 7.13500977 C54.51304458 8.41101838 53.78127694 9.68706188 53.04956055 10.96313477 C52.68475586 11.59735352 52.31995117 12.23157227 51.9440918 12.88500977 C50.18394997 15.95725732 48.48830003 19.03697908 46.92456055 22.21313477 C-11.54151978 22.65377361 -11.54151978 22.65377361 -33.07543945 20.21313477 C-34.35612305 20.06827637 -35.63680664 19.92341797 -36.95629883 19.77416992 C-41.04129315 19.30245493 -45.12147211 18.79670494 -49.20043945 18.27563477 C-50.44100098 18.11804688 -51.6815625 17.96045898 -52.9597168 17.7980957 C-70.7097486 15.36911836 -70.7097486 15.36911836 -78.07543945 10.21313477 C-77.06943141 7.415906 -76.43937156 6.39861191 -73.74731445 5.02661133 C-65.92120301 2.55479471 -58.20955361 1.02096119 -50.07543945 -0.03686523 C-48.80087891 -0.20452393 -47.52631836 -0.37218262 -46.21313477 -0.54492188 C-30.39046136 -2.50729253 -15.77742969 -2.07084135 0 0 Z " fill="#F3A24F" transform="translate(137.075439453125,196.786865234375)"/>
<path d="M0 0 C2.41404796 0.09671771 4.82811043 0.19307404 7.2421875 0.2890625 C13.07829827 0.52188906 18.91421613 0.75912555 24.75 1 C24.75 1.33 24.75 1.66 24.75 2 C19.92864927 2.95760852 15.13955756 3.27926158 10.24560547 3.59545898 C-0.20235597 4.28093778 -10.53077221 5.30322205 -20.875 6.9375 C-21.89827393 7.09516846 -22.92154785 7.25283691 -23.97583008 7.4152832 C-29.73425924 8.36983793 -34.86018129 9.75317533 -40.25 12 C-40.25 12.99 -40.25 13.98 -40.25 15 C-29.77275898 19.23119349 -19.15550306 21.41823195 -7.9375 22.5625 C-6.77484619 22.68834473 -5.61219238 22.81418945 -4.41430664 22.94384766 C3.10056435 23.70131476 10.59360108 24.16341424 18.140625 24.45703125 C19.02449387 24.49335159 19.90836273 24.52967194 20.8190155 24.5670929 C25.2253043 24.74566613 29.62969672 24.89607613 34.03833008 25.00219727 C35.66230294 25.06050909 37.28624686 25.11963402 38.91015625 25.1796875 C39.65892029 25.18809158 40.40768433 25.19649567 41.17913818 25.20515442 C43.27368164 25.29638672 43.27368164 25.29638672 46.75 26 C49.70057765 29.56235155 50.61704335 33.55532393 51.75 38 C28.68791853 38.62706566 5.6025799 35.82322027 -17.25 33 C-18.18102539 32.88543457 -19.11205078 32.77086914 -20.07128906 32.65283203 C-61.79871475 27.36592576 -61.79871475 27.36592576 -71.25 17 C-72.5 14.125 -72.5 14.125 -72.25 11 C-68.15597181 6.15938127 -62.96367483 3.58669844 -57.0625 1.625 C-56.40314453 1.36589844 -55.74378906 1.10679687 -55.06445312 0.83984375 C-38.56835926 -4.77268863 -17.05069851 -0.70394959 0 0 Z " fill="#FDBB20" transform="translate(128.25,319)"/>
<path d="M0 0 C1.80078125 0.12890625 1.80078125 0.12890625 4 1 C5.60546875 3.58984375 5.60546875 3.58984375 7.1875 6.9375 C12.30975888 17.09683298 19.28840102 23.99381733 28.8125 30.2109375 C31.1697718 32.13884908 31.68557409 33.02605494 32 36 C31.154375 36.54527344 30.30875 37.09054688 29.4375 37.65234375 C17.0530089 45.80566515 9.93608452 55.03173559 3 68 C1.19921875 67.87109375 1.19921875 67.87109375 -1 67 C-2.60546875 64.41015625 -2.60546875 64.41015625 -4.1875 61.0625 C-9.99556821 49.57114937 -18.1016622 42.60170039 -29 36 C-28.8828125 34.296875 -28.8828125 34.296875 -28 32 C-25.98908074 30.28634707 -24.02311589 28.76799004 -21.875 27.25 C-11.66009534 19.66123078 -5.98844003 11.07472547 0 0 Z " fill="#FEFEFD" transform="translate(428,209)"/>
<path d="M0 0 C2.15817352 3.23726028 3.71173524 6.59109092 5.30078125 10.125 C5.61903366 10.82713623 5.93728607 11.52927246 6.2651825 12.25268555 C7.28344094 14.50067503 8.29803625 16.75029589 9.3125 19 C10.31441479 21.21470809 11.31705272 23.429087 12.32003784 25.64331055 C12.97082528 27.08270972 13.61970925 28.52297111 14.26663208 29.96411133 C15.68516929 33.12121178 17.12463363 36.2580017 18.63037109 39.375 C19.09652832 40.344375 19.56268555 41.31375 20.04296875 42.3125 C20.44926514 43.13363281 20.85556152 43.95476562 21.27416992 44.80078125 C22.12639176 47.38295896 22.02157144 48.50304178 21 51 C19.25893601 53.03803477 17.53725502 54.88747545 15.625 56.75 C15.09422852 57.2749707 14.56345703 57.79994141 14.01660156 58.34082031 C9.06264576 63.13639031 3.73263445 67.16319742 -2 71 C-5.0330345 67.3845901 -6.8222365 63.38869705 -8.7578125 59.12890625 C-9.2805928 57.98989113 -9.2805928 57.98989113 -9.81393433 56.8278656 C-10.5474634 55.2261026 -11.27854367 53.62321619 -12.00732422 52.01928711 C-13.12104987 49.57118286 -14.24552057 47.12822262 -15.37109375 44.68554688 C-16.08398686 43.12529844 -16.79624776 41.56476095 -17.5078125 40.00390625 C-17.84322052 39.27667862 -18.17862854 38.54945099 -18.52420044 37.80018616 C-20.16315967 34.17243634 -21.22710021 30.91877824 -22 27 C-22.66 26.67 -23.32 26.34 -24 26 C-23.21689453 25.46826172 -23.21689453 25.46826172 -22.41796875 24.92578125 C-17.33851001 21.251847 -13.20263168 17.21333618 -9.1875 12.4375 C-8.50433716 11.62502808 -8.50433716 11.62502808 -7.80737305 10.79614258 C-4.96049776 7.3364165 -2.42861945 3.7646432 0 0 Z " fill="#FECF6B" transform="translate(418,351)"/>
<path d="M0 0 C0.41902588 0.90008789 0.83805176 1.80017578 1.26977539 2.72753906 C4.10574909 8.81435138 6.94688717 14.8984401 9.82089233 20.96740723 C11.05361296 23.5715026 12.28175405 26.17774602 13.50952148 28.78417969 C14.13875201 30.11713527 14.77000282 31.44913867 15.40307617 32.78027344 C16.33527847 34.74165923 17.26013465 36.70636072 18.18359375 38.671875 C18.72556396 39.8175293 19.26753418 40.96318359 19.82592773 42.14355469 C21 45 21 45 21 48 C9.78 48 -1.44 48 -13 48 C-17.85298274 38.47716594 -22.5130979 28.88859481 -27 19.1875 C-27.73923706 17.60388672 -27.73923706 17.60388672 -28.4934082 15.98828125 C-28.9493335 14.99570313 -29.40525879 14.003125 -29.875 12.98046875 C-30.28492188 12.09254639 -30.69484375 11.20462402 -31.1171875 10.28979492 C-32 8 -32 8 -32 5 C-32.66 4.67 -33.32 4.34 -34 4 C-30.39869578 3.31723666 -26.79360996 2.6568668 -23.1875 2 C-22.18267578 1.80921875 -21.17785156 1.6184375 -20.14257812 1.421875 C-13.3546959 0.19961968 -6.89260804 -0.24504026 0 0 Z " fill="#FECF6C" transform="translate(319,133)"/>
<path d="M0 0 C0.73605469 0.00451172 1.47210938 0.00902344 2.23046875 0.01367188 C4.02868158 0.02534858 5.82685197 0.04327989 7.625 0.0625 C7.87894531 1.01769531 8.13289063 1.97289062 8.39453125 2.95703125 C8.74217 4.26302549 9.08982727 5.5690148 9.4375 6.875 C9.77394531 8.13957031 10.11039062 9.40414063 10.45703125 10.70703125 C11.82597185 15.83106049 13.22590569 20.94663768 14.625 26.0625 C-61.16489866 22.86923422 -61.16489866 22.86923422 -74.375 14.0625 C-74.1965332 12.19458008 -74.1965332 12.19458008 -73.375 10.0625 C-65.37083314 5.749975 -55.56927403 4.95235148 -46.6875 3.875 C-45.3586746 3.70570921 -44.02989888 3.53602813 -42.70117188 3.3659668 C-34.34720859 2.33098527 -26.03646921 1.5449494 -17.625 1.23828125 C-14.41665909 1.13037867 -14.41665909 1.13037867 -11.4609375 0.546875 C-7.61048146 -0.05750038 -3.88905459 -0.04571221 0 0 Z " fill="#F3A24F" transform="translate(161.375,319.9375)"/>
<path d="M0 0 C1.28519531 -0.00128906 2.57039063 -0.00257813 3.89453125 -0.00390625 C4.89734131 -0.00076416 4.89734131 -0.00076416 5.92041016 0.00244141 C7.96133865 0.00779307 10.00204709 0.00248854 12.04296875 -0.00390625 C13.32816406 -0.00261719 14.61335938 -0.00132812 15.9375 0 C17.11763672 0.00112793 18.29777344 0.00225586 19.51367188 0.00341797 C22.46875 0.1328125 22.46875 0.1328125 25.46875 1.1328125 C26.53063965 2.75575256 26.53063965 2.75575256 27.50585938 4.88305664 C27.87634399 5.67801041 28.24682861 6.47296417 28.62854004 7.29200745 C29.01924683 8.15857468 29.40995361 9.02514191 29.8125 9.91796875 C30.22286499 10.80761826 30.63322998 11.69726776 31.05603027 12.61387634 C31.92486277 14.50231893 32.78869838 16.39306716 33.64794922 18.28588867 C34.95430408 21.16349142 36.27445886 24.03440572 37.59765625 26.90429688 C38.44092687 28.74181017 39.28339993 30.57968973 40.125 32.41796875 C40.51570679 33.27036636 40.90641357 34.12276398 41.30895996 35.00099182 C43.56819974 39.9832272 45.60612226 44.98874697 47.46875 50.1328125 C42.91427916 49.60322287 38.55391395 48.70471591 34.09375 47.6328125 C28.86901931 46.39458153 23.81533329 45.58591278 18.46875 45.1328125 C18.41976563 44.14539063 18.37078125 43.15796875 18.3203125 42.140625 C18.24554688 40.85929687 18.17078125 39.57796875 18.09375 38.2578125 C18.02414062 36.98164063 17.95453125 35.70546875 17.8828125 34.390625 C17.79633894 31.05219551 17.79633894 31.05219551 15.46875 29.1328125 C13.36285923 28.81417561 13.36285923 28.81417561 11.03125 28.8828125 C10.24878906 28.87765625 9.46632813 28.8725 8.66015625 28.8671875 C6.17830893 29.00104419 6.17830893 29.00104419 3.46875 31.1328125 C1.77356728 27.50534257 0.0830368 23.87574488 -1.60327148 20.24414062 C-2.17720122 19.00982741 -2.7523836 17.77609583 -3.32885742 16.54296875 C-4.15875572 14.76717256 -4.98373346 12.98907945 -5.80859375 11.2109375 C-6.55484009 9.60847168 -6.55484009 9.60847168 -7.31616211 7.97363281 C-8.30253843 5.66752977 -9.03305003 3.57992947 -9.53125 1.1328125 C-6.15066988 0.00595246 -3.56218879 0.0034046 0 0 Z " fill="#F8A83D" transform="translate(315.53125,179.8671875)"/>
<path d="M0 0 C1.17369141 -0.02513672 1.17369141 -0.02513672 2.37109375 -0.05078125 C4.5625 0.3125 4.5625 0.3125 6.3359375 1.3828125 C8.23437201 4.36952158 7.84596401 7.01330775 7.75 10.5 C7.72292969 11.77230469 7.69585937 13.04460937 7.66796875 14.35546875 C7.63316406 15.33128906 7.59835937 16.30710938 7.5625 17.3125 C8.7175 17.23 9.8725 17.1475 11.0625 17.0625 C15.76868609 17.05502986 20.14473961 17.98825931 24.6875 19.125 C25.69006836 19.3729834 25.69006836 19.3729834 26.71289062 19.62597656 C32.27156228 21.07999363 37.76039062 22.60280649 42 26.625 C43.93419361 29.95181301 44.25860497 31.52259516 43.5625 35.3125 C41.72253736 38.23199792 39.69928426 40.74410787 36.5625 42.3125 C32.4905704 42.20662983 28.58828911 41.67722502 24.75 40.3125 C21.51606205 39.29793123 18.73474159 39.00427849 15.36328125 38.75 C14.27829346 38.66621094 13.19330566 38.58242187 12.07543945 38.49609375 C10.83153442 38.40521484 10.83153442 38.40521484 9.5625 38.3125 C10.07224365 39.41239258 10.5819873 40.51228516 11.10717773 41.64550781 C12.99855352 45.72901047 14.88534022 49.81461957 16.77075195 53.90087891 C17.5872101 55.66870944 18.4049095 57.43596725 19.22387695 59.20263672 C20.4012251 61.74296705 21.57408535 64.28532754 22.74609375 66.828125 C23.29613319 68.01115204 23.29613319 68.01115204 23.85728455 69.21807861 C24.1975618 69.95854431 24.53783905 70.69901001 24.88842773 71.46191406 C25.1882103 72.11033264 25.48799286 72.75875122 25.79685974 73.42681885 C26.58458138 75.36688381 27.10390123 77.27180536 27.5625 79.3125 C23.40343302 78.55053353 19.37838068 77.46931961 15.3125 76.3125 C14.06984375 75.961875 12.8271875 75.61125 11.546875 75.25 C8.5625 74.3125 8.5625 74.3125 7.5625 73.3125 C7.56326824 70.76887052 7.62046859 68.24439913 7.703125 65.703125 C8.11735324 43.56635983 5.71236229 27.08229112 -5.26000977 7.69628906 C-6.4375 5.3125 -6.4375 5.3125 -6.4375 2.3125 C-4.02263057 -0.10236943 -3.31042211 0.0163075 0 0 Z " fill="#FECF6C" transform="translate(326.4375,207.6875)"/>
<path d="M0 0 C2.81898784 2.45100328 4.07752754 4.97142221 5.57421875 8.37109375 C6.06905762 9.48532715 6.56389648 10.59956055 7.07373047 11.74755859 C7.6117183 12.97751079 8.14963948 14.20749213 8.6875 15.4375 C9.25337956 16.71726472 9.81996461 17.99671768 10.38720703 19.27587891 C11.61022562 22.03666725 12.82927574 24.79916065 14.04541016 27.56298828 C17.12715803 34.56409129 20.23471908 41.55374772 23.34048462 48.54421997 C24.3469398 50.81177992 25.35086648 53.08044385 26.35424805 55.34936523 C32.03006012 68.16657087 37.94304 80.86145796 44.03125 93.48828125 C44.3509375 94.31714844 44.670625 95.14601563 45 96 C44.67 96.66 44.34 97.32 44 98 C20.57039914 79.96009819 4.65803937 53.99304022 0.26953125 24.50390625 C-0.35709795 16.35772668 -0.14913354 8.16334056 0 0 Z " fill="#EA9835" transform="translate(213,282)"/>
<path d="M0 0 C0.25394531 0.95519531 0.50789063 1.91039062 0.76953125 2.89453125 C1.11717 4.20052549 1.46482727 5.5065148 1.8125 6.8125 C2.14894531 8.07707031 2.48539063 9.34164063 2.83203125 10.64453125 C4.20097185 15.76856049 5.60090569 20.88413768 7 26 C3.3956412 25.85869714 -0.20843519 25.71109836 -3.8125 25.5625 C-4.81732422 25.52318359 -5.82214844 25.48386719 -6.85742188 25.44335938 C-13.59592939 25.16168543 -20.28952975 24.67510594 -27 24 C-29.36487699 16.73197497 -30.89533459 9.56370902 -32 2 C-21.25704615 0.3999856 -10.85859801 -0.25991325 0 0 Z " fill="#E29B52" transform="translate(169,320)"/>
<path d="M0 0 C12.3779494 -0.12350504 24.64865646 0.17362576 37 1 C36.44570312 1.96421875 35.89140625 2.9284375 35.3203125 3.921875 C34.58848403 5.19788361 33.8567164 6.47392712 33.125 7.75 C32.76019531 8.38421875 32.39539063 9.0184375 32.01953125 9.671875 C30.25696474 12.74835472 28.58653999 15.82692003 27 19 C15.45 19 3.9 19 -8 19 C-4.625 8.875 -4.625 8.875 -2.3125 4.4375 C-1.87550781 3.59058594 -1.43851563 2.74367187 -0.98828125 1.87109375 C-0.66214844 1.25363281 -0.33601562 0.63617188 0 0 Z " fill="#E29B53" transform="translate(157,200)"/>
<path d="M0 0 C0.99 0 1.98 0 3 0 C3.495 1.155 3.99 2.31 4.5 3.5 C7.61467482 9.75159732 12.55801305 15.15287184 19 18 C18.62747842 20.53206699 18.34939493 21.70397327 16.36328125 23.38671875 C15.68652344 23.81597656 15.00976562 24.24523437 14.3125 24.6875 C9.56663744 28.02749663 6.94324609 32.07896753 4 37 C3.34 37.99 2.68 38.98 2 40 C1.34 40 0.68 40 0 40 C-0.91485873 38.53622604 -1.7558052 37.02605511 -2.5625 35.5 C-5.99620164 29.53977221 -10.75080929 24.12459536 -17 21 C-15.56139222 17.46469791 -13.88083866 15.9941731 -10.75 13.875 C-6.19552356 10.51405999 -3.83964965 6.9456284 -1.2890625 1.94140625 C-0.86367187 1.30074219 -0.43828125 0.66007812 0 0 Z " fill="#FFFDFB" transform="translate(192,301)"/>
<path d="M0 0 C7.44062217 -0.1944521 14.62089082 0.39440088 22 1.3125 C23.13735596 1.44785156 24.27471191 1.58320312 25.4465332 1.72265625 C30.00286873 2.26538375 34.55760689 2.82001216 39.11083984 3.38818359 C59.68955805 5.95507083 80.32071262 7.51288923 101 9 C101 9.66 101 10.32 101 11 C66.90379222 17.21275803 32.39120624 13.47005894 0 1 C0 0.67 0 0.34 0 0 Z " fill="#FFFBF4" transform="translate(105,112)"/>
<path d="M0 0 C0 0.33 0 0.66 0 1 C-22.10846307 5.51127828 -44.56890604 7.07012552 -67.0625 8.1875 C-67.91812531 8.23029083 -68.77375061 8.27308167 -69.65530396 8.31716919 C-79.10801605 8.78074133 -88.53293059 9.13802456 -98 9 C-73.49677057 -7.33548629 -27.82500231 -4.32833369 0 0 Z " fill="#ECB328" transform="translate(359,103)"/>
<path d="M0 0 C10.32880279 0.58718899 20.52373974 1.74610043 30.78207397 3.04138184 C48.04395747 5.21010272 65.29363431 6.88457691 82.64819336 8.09912109 C83.81883331 8.18149521 83.81883331 8.18149521 85.01312256 8.26553345 C86.45298304 8.36564481 87.89303601 8.46304706 89.33331299 8.55697632 C93.59992121 8.84771521 97.77695992 9.35056445 102 10 C96.4071148 15.5928852 84.76403506 14.30335983 77.36547852 14.32910156 C75.95198013 14.32523769 74.53848548 14.31967045 73.125 14.3125 C72.03600906 14.31026428 72.03600906 14.31026428 70.92501831 14.3079834 C58.74321246 14.26314753 46.95937585 13.38531932 35 11 C34.21641113 10.85014648 33.43282227 10.70029297 32.62548828 10.54589844 C5.23326149 5.23326149 5.23326149 5.23326149 0 0 Z " fill="#FEFDFA" transform="translate(81,365)"/>
<path d="M0 0 C6.84798044 -0.13496208 13.49308177 0.23189254 20.29296875 1.0234375 C21.24206619 1.12967438 22.19116364 1.23591125 23.16902161 1.34536743 C25.16513693 1.56979276 27.16096038 1.79682827 29.15649414 2.02636719 C32.16167751 2.37202984 35.1676259 2.71020004 38.17382812 3.046875 C46.5504797 3.99151639 54.91610878 4.96712905 63.265625 6.12890625 C69.03729265 6.91723937 74.74297682 7.37054469 80.5625 7.5625 C85.7937944 7.75206888 90.84626004 7.98929897 96 9 C96 9.66 96 10.32 96 11 C90.33185689 12.60885635 85.31010144 13.29765108 79.43359375 13.265625 C78.23876122 13.26849518 78.23876122 13.26849518 77.01979065 13.27142334 C75.34155968 13.27277635 73.66331792 13.26914212 71.98510742 13.26074219 C69.46833608 13.25013002 66.9522949 13.26061582 64.43554688 13.2734375 C51.38473448 13.28540866 38.75403683 12.11360558 26 9.1875 C25.25943359 9.02008301 24.51886719 8.85266602 23.75585938 8.68017578 C4.06963078 4.06963078 4.06963078 4.06963078 0 0 Z " fill="#FEFCF6" transform="translate(45,231)"/>
<path d="M0 0 C3.15879426 3.05689767 6.02411526 6.17745602 8.7902832 9.60449219 C26.15686281 31.01490861 51.77621229 44.4626416 79 48 C79 48.33 79 48.66 79 49 C60.47294953 49.83476072 44.93867551 46.01702636 28.20556641 38.03710938 C26.81005851 37.38090863 25.40166793 36.75089966 23.97802734 36.15820312 C12.3873775 31.29482709 8.8699063 22.90316888 4.28515625 11.69750977 C2.76851125 7.82419151 1.31541491 3.94624474 0 0 Z " fill="#EEAC5D" transform="translate(246,353)"/>
<path d="M0 0 C7.41034066 1.05862009 13.06337774 2.61843497 18.0625 8.375 C19.30732738 11.86051668 19.45213373 14.31833966 19 18 C16.1199273 23.44013733 12.6472415 26.91949327 6.9375 29.25 C4 30 4 30 0 30 C0 20.1 0 10.2 0 0 Z " fill="#FAB964" transform="translate(335,304)"/>
<path d="M0 0 C0 10.23 0 20.46 0 31 C-6.66751785 29.66649643 -12.61189515 27.44125001 -17 22 C-18.26596525 18.20210426 -18.84320353 14.91636681 -18 11 C-13.81047157 4.01330868 -8.24498986 0 0 0 Z " fill="#FABA65" transform="translate(319,246)"/>
<path d="M0 0 C0 8.58 0 17.16 0 26 C-11.01265823 22.69620253 -11.01265823 22.69620253 -15.03515625 21.46484375 C-15.86466797 21.21283203 -16.69417969 20.96082031 -17.54882812 20.70117188 C-19.22927386 20.19064019 -20.90896082 19.67760445 -22.58789062 19.16210938 C-28.01996116 17.51769269 -33.4456731 16.16903758 -39 15 C-39 14.67 -39 14.34 -39 14 C-38.42668945 13.87471924 -37.85337891 13.74943848 -37.26269531 13.62036133 C-27.40371898 11.44035302 -8.07004465 0 0 0 Z " fill="#FECF6A" transform="translate(398,89)"/>
<path d="M0 0 C4.64563347 0.0193996 9.28936701 0.07104659 13.93432617 0.15258789 C15.51429897 0.17578224 17.0944267 0.19016704 18.67456055 0.19555664 C20.94678439 0.20483685 23.21656715 0.24579747 25.48828125 0.29296875 C26.19463211 0.2890361 26.90098297 0.28510345 27.6287384 0.28105164 C29.63012695 0.34057617 29.63012695 0.34057617 33 1 C35.93659868 4.57286803 36.86727325 8.55622583 38 13 C29.52601235 13.10264588 21.08812407 13.04274835 12.625 12.5625 C11.89418213 12.52326416 11.16336426 12.48402832 10.41040039 12.44360352 C5.24951694 12.12475847 5.24951694 12.12475847 3 11 C2.1484375 8.49609375 2.1484375 8.49609375 1.375 5.4375 C1.11460937 4.42558594 0.85421875 3.41367187 0.5859375 2.37109375 C0.39257812 1.58863281 0.19921875 0.80617188 0 0 Z " fill="#EBB229" transform="translate(142,344)"/>
<path d="M0 0 C11.55 0 23.1 0 35 0 C33.54996379 4.35010863 32.09990776 7.99108518 30 12 C18.94438708 12.09920291 8.01093413 12.12520495 -3 11 C-2.42732628 6.89583836 -1.5731146 3.9327865 0 0 Z " fill="#EBB229" transform="translate(148,219)"/>
<path d="M0 0 C2.11584148 2.82112197 3.45657729 4.68534359 4.80932617 7.75878906 C5.12943161 8.47923401 5.44953705 9.19967896 5.77934265 9.94195557 C6.11383926 10.70876648 6.44833588 11.47557739 6.79296875 12.265625 C7.14386063 13.05902283 7.4947525 13.85242065 7.85627747 14.66986084 C8.97151001 17.19447812 10.07958809 19.7221628 11.1875 22.25 C11.94419103 23.96635331 12.70134728 25.6825016 13.45898438 27.3984375 C15.31138831 31.59660192 17.15738383 35.79753097 19 40 C15.27418755 41.24193748 14.20783466 40.54831788 10.625 39.125 C6.97580897 37.6874399 3.90334898 36.7806698 0 36 C0 24.12 0 12.24 0 0 Z " fill="#FAB863" transform="translate(335,246)"/>
<path d="M0 0 C11.52864347 5.12984136 20.0240484 15.85316131 27 26 C25.63491499 29.11728368 24.13080302 31.08663738 21.5625 33.3125 C20.96566406 33.84488281 20.36882812 34.37726563 19.75390625 34.92578125 C19.17511719 35.28027344 18.59632813 35.63476562 18 36 C15 35 15 35 13.2824707 31.88891602 C12.65248531 30.51561233 12.03435933 29.13682972 11.42578125 27.75390625 C11.09708542 27.02759506 10.76838959 26.30128387 10.42973328 25.55296326 C9.73653827 24.01596479 9.04841856 22.4766688 8.36499023 20.93530273 C7.31621975 18.57088605 6.25235341 16.21374773 5.18554688 13.85742188 C4.51472984 12.36498537 3.84477843 10.87215941 3.17578125 9.37890625 C2.85708572 8.67053116 2.5383902 7.96215607 2.21003723 7.23231506 C0 2.23393278 0 2.23393278 0 0 Z " fill="#F9A93E" transform="translate(389,201)"/>
<path d="M0 0 C8.7638994 4.13353985 14.68968107 9.15564219 18.4375 18.25 C20.73286812 25.28324334 21.076538 32.85873518 19 40 C18.34 40 17.68 40 17 40 C14.73549336 34.94814483 12.47527475 29.89440168 10.21899414 24.83886719 C9.45096266 23.11959215 8.68176566 21.40083727 7.91137695 19.68261719 C6.80372607 17.21164874 5.70029127 14.73883503 4.59765625 12.265625 C4.25283707 11.49881409 3.90801788 10.73200317 3.55274963 9.94195557 C3.23249313 9.22151062 2.91223663 8.50106567 2.58227539 7.75878906 C2.15924889 6.81280853 2.15924889 6.81280853 1.72767639 5.84771729 C0.96908098 3.92149037 0.45833037 2.01688376 0 0 Z " fill="#FECE6A" transform="translate(355,288)"/>
<path d="M0 0 C3.85622818 1.28540939 4.3965617 2.76941277 6.5 6.1875 C7.41458984 7.6725 7.41458984 7.6725 8.34765625 9.1875 C10.0467199 12.07952324 11.60052501 14.95408384 13 18 C13.99 18 14.98 18 16 18 C16.66 17.01 17.32 16.02 18 15 C18.66 15 19.32 15 20 15 C20.82935729 20.80550106 21.18264358 26.45080699 21.1875 32.3125 C21.19974609 33.10978516 21.21199219 33.90707031 21.22460938 34.72851562 C21.2345502 38.66839641 21.23353688 40.64969468 19 44 C16.77021501 39.18303621 14.54675304 34.36322113 12.32885742 29.54077148 C11.57501428 27.90392406 10.81951157 26.26783981 10.06225586 24.63256836 C8.96801275 22.26880127 7.87995994 19.90226539 6.79296875 17.53515625 C6.45847214 16.81602554 6.12397552 16.09689484 5.77934265 15.35597229 C3.48610729 10.34083888 1.6486696 5.26122322 0 0 Z " fill="#F9AA41" transform="translate(415,258)"/>
<path d="M0 0 C3.68774615 0.13998402 7.37512663 0.28804204 11.0625 0.4375 C12.10083984 0.47681641 13.13917969 0.51613281 14.20898438 0.55664062 C19.54030641 0.77666344 24.73689893 1.1116184 30 2 C25.86250336 6.13749664 18.75115889 5.94299381 13.16015625 6.125 C9.77101001 6.125 6.38789171 6.08902489 3 6 C2.01 4.02 1.02 2.04 0 0 Z " fill="#EDEAE4" transform="translate(153,373)"/>
<path d="M0 0 C6.93 0.495 6.93 0.495 14 1 C14 1.33 14 1.66 14 2 C12.35 2 10.7 2 9 2 C9 2.66 9 3.32 9 4 C6.03 3.01 3.06 2.02 0 1 C0 0.67 0 0.34 0 0 Z " fill="#FFF0D1" transform="translate(81,365)"/>
<path d="M0 0 C3.875 1.875 3.875 1.875 5 3 C5.04092937 5.33297433 5.04241723 7.66705225 5 10 C2.35534962 6.8745041 1.15585285 3.91211733 0 0 Z " fill="#FED786" transform="translate(364,232)"/>
<path d="M0 0 C2.64 0 5.28 0 8 0 C8 0.66 8 1.32 8 2 C5.69 2.33 3.38 2.66 1 3 C0.67 2.01 0.34 1.02 0 0 Z " fill="#EA9835" transform="translate(306,181)"/>
<path d="M0 0 C2.64 0 5.28 0 8 0 C8 0.66 8 1.32 8 2 C5.36 2.33 2.72 2.66 0 3 C0 2.01 0 1.02 0 0 Z " fill="#FFF0D2" transform="translate(198,121)"/>
</svg>
